<?xml version="1.0" encoding="UTF-8" standalone="no"?>
<!-- Created with Inkscape (http://www.inkscape.org/) -->

<svg
   version="1.1"
   id="svg1"
   width="420"
   height="312.66367"
   viewBox="0 0 420 312.66366"
   sodipodi:docname="gameApp.svg"
   inkscape:version="1.4.2 (ebf0e940, 2025-05-08)"
   xml:space="preserve"
   inkscape:export-filename="gameApp.png"
   inkscape:export-xdpi="1000"
   inkscape:export-ydpi="1000"
   xmlns:inkscape="http://www.inkscape.org/namespaces/inkscape"
   xmlns:sodipodi="http://sodipodi.sourceforge.net/DTD/sodipodi-0.dtd"
   xmlns:xlink="http://www.w3.org/1999/xlink"
   xmlns="http://www.w3.org/2000/svg"
   xmlns:svg="http://www.w3.org/2000/svg"><sodipodi:namedview
     id="namedview1"
     pagecolor="#ffffff"
     bordercolor="#000000"
     borderopacity="0.25"
     inkscape:showpageshadow="2"
     inkscape:pageopacity="0.0"
     inkscape:pagecheckerboard="0"
     inkscape:deskcolor="#d1d1d1"
     inkscape:zoom="1.195958"
     inkscape:cx="183.11679"
     inkscape:cy="82.360749"
     inkscape:window-width="1280"
     inkscape:window-height="770"
     inkscape:window-x="0"
     inkscape:window-y="34"
     inkscape:window-maximized="1"
     inkscape:current-layer="svg1" /><defs
     id="defs1"><inkscape:path-effect
       effect="fillet_chamfer"
       id="path-effect2"
       is_visible="true"
       lpeversion="1"
       nodesatellites_param="F,0,0,1,0,0,0,1 @ F,0,0,1,0,0,0,1 @ F,0,0,1,0,0,0,1 @ F,0,0,1,0,0,0,1 @ F,0,0,1,0,0,0,1 @ F,0,0,1,0,0,0,1 @ F,0,0,1,0,0,0,1 @ F,0,0,1,0,0,0,1 @ F,0,0,1,0,0,0,1 @ F,0,0,1,0,0,0,1 @ F,0,0,1,0,0,0,1 @ F,0,0,1,0,0,0,1 @ F,0,0,1,0,0,0,1 @ F,0,0,1,0,0,0,1 @ F,0,0,1,0,0,0,1 @ F,0,0,1,0,0,0,1"
       radius="0"
       unit="px"
       method="auto"
       mode="F"
       chamfer_steps="1"
       flexible="false"
       use_knot_distance="true"
       apply_no_radius="true"
       apply_with_radius="true"
       only_selected="false"
       hide_knots="false" /><inkscape:path-effect
       effect="fillet_chamfer"
       id="path-effect1"
       is_visible="true"
       lpeversion="1"
       nodesatellites_param="F,0,0,1,0,0,0,1 @ F,0,0,1,0,0,0,1 @ F,0,0,1,0,0,0,1 @ F,0,0,1,0,0,0,1 @ F,0,0,1,0,0,0,1 @ F,0,0,1,0,0,0,1 @ F,0,0,1,0,0,0,1 @ F,0,0,1,0,0,0,1 @ F,0,0,1,0,0,0,1 @ F,0,0,1,0,0,0,1 @ F,0,0,1,0,0,0,1 @ F,0,0,1,0,0,0,1 @ F,0,0,1,0,0,0,1 @ F,0,0,1,0,0,0,1 @ F,0,0,1,0,0,0,1 @ F,0,0,1,0,0,0,1 @ F,0,0,1,0,0,0,1 @ F,0,1,1,0,6.3920617,0,1 @ F,0,1,1,0,6.3920617,0,1 @ F,0,0,1,0,0,0,1 @ F,0,0,1,0,0,0,1 @ F,0,0,1,0,0,0,1 @ F,0,0,1,0,0,0,1 @ F,0,0,1,0,0,0,1 @ F,0,0,1,0,0,0,1 @ F,0,0,1,0,0,0,1 @ F,0,0,1,0,0,0,1 @ F,0,0,1,0,0,0,1 @ F,0,0,1,0,0,0,1 @ F,0,0,1,0,0,0,1 @ F,0,0,1,0,0,0,1 @ F,0,0,1,0,0,0,1 @ F,0,0,1,0,0,0,1 @ F,0,0,1,0,0,0,1 @ F,0,0,1,0,0,0,1 @ F,0,0,1,0,0,0,1 | F,0,0,1,0,0,0,1 @ F,0,0,1,0,0,0,1 @ F,0,0,1,0,0,0,1 @ F,0,0,1,0,0,0,1 @ F,0,0,1,0,0,0,1 @ F,0,0,1,0,0,0,1 @ F,0,0,1,0,0,0,1 @ F,0,0,1,0,0,0,1 @ F,0,0,1,0,0,0,1 @ F,0,0,1,0,0,0,1 @ F,0,0,1,0,0,0,1 @ F,0,0,1,0,0,0,1 @ F,0,0,1,0,0,0,1 @ F,0,0,1,0,0,0,1 @ F,0,0,1,0,0,0,1 @ F,0,0,1,0,0,0,1 @ F,0,0,1,0,0,0,1 @ F,0,0,1,0,0,0,1 @ F,0,0,1,0,0,0,1 @ F,0,0,1,0,0,0,1 @ F,0,0,1,0,6.3920617,0,1 @ F,0,1,1,0,6.3920617,0,1 @ F,0,0,1,0,0,0,1 @ F,0,0,1,0,0,0,1 @ F,0,0,1,0,0,0,1 @ F,0,0,1,0,0,0,1 @ F,0,0,1,0,0,0,1 @ F,0,0,1,0,0,0,1 @ F,0,0,1,0,0,0,1 @ F,0,0,1,0,0,0,1 @ F,0,0,1,0,0,0,1 @ F,0,0,1,0,0,0,1 @ F,0,0,1,0,0,0,1 @ F,0,0,1,0,0,0,1 @ F,0,0,1,0,0,0,1 @ F,0,0,1,0,0,0,1 @ F,0,0,1,0,0,0,1 @ F,0,0,1,0,0,0,1 @ F,0,0,1,0,0,0,1 @ F,0,0,1,0,0,0,1 @ F,0,0,1,0,0,0,1 @ F,0,0,1,0,0,0,1 @ F,0,0,1,0,0,0,1 @ F,0,0,1,0,0,0,1 @ F,0,0,1,0,0,0,1 @ F,0,0,1,0,0,0,1 @ F,0,0,1,0,0,0,1 | F,0,0,1,0,0,0,1 @ F,0,0,1,0,0,0,1 @ F,0,0,1,0,0,0,1 @ F,0,0,1,0,0,0,1 @ F,0,0,1,0,0,0,1 @ F,0,0,1,0,0,0,1 @ F,0,0,1,0,0,0,1 @ F,0,0,1,0,0,0,1 @ F,0,0,1,0,0,0,1 @ F,0,0,1,0,0,0,1 @ F,0,1,1,0,6.3920617,0,1 @ F,0,1,1,0,6.3920617,0,1 @ F,0,0,1,0,0,0,1 | F,0,0,1,0,0,0,1 @ F,0,0,1,0,0,0,1 @ F,0,1,1,0,6.3920617,0,1 @ F,0,1,1,0,6.3920617,0,1 @ F,0,0,1,0,0,0,1 @ F,0,0,1,0,0,0,1"
       radius="0"
       unit="px"
       method="auto"
       mode="F"
       chamfer_steps="1"
       flexible="false"
       use_knot_distance="true"
       apply_no_radius="true"
       apply_with_radius="true"
       only_selected="false"
       hide_knots="false" /><inkscape:path-effect
       effect="fillet_chamfer"
       id="path-effect3"
       is_visible="true"
       lpeversion="1"
       nodesatellites_param="F,0,0,1,0,1.1057537,0,1 @ F,0,0,1,0,1.1057537,0,1 @ F,0,0,1,0,32.306116,0,1 @ F,0,0,1,0,1.1057537,0,1"
       radius="1.1057537"
       unit="px"
       method="auto"
       mode="F"
       chamfer_steps="1"
       flexible="false"
       use_knot_distance="true"
       apply_no_radius="true"
       apply_with_radius="true"
       only_selected="false"
       hide_knots="false" /><linearGradient
       id="swatch21"
       inkscape:swatch="solid"><stop
         style="stop-color:#000000;stop-opacity:1;"
         offset="0"
         id="stop21" /></linearGradient><linearGradient
       id="swatch20"
       inkscape:swatch="solid"><stop
         style="stop-color:#685b50;stop-opacity:1;"
         offset="0"
         id="stop20" /></linearGradient><linearGradient
       id="swatch19"
       inkscape:swatch="solid"><stop
         style="stop-color:#e4c785;stop-opacity:1;"
         offset="0"
         id="stop19" /></linearGradient><linearGradient
       id="swatch18"
       inkscape:swatch="solid"><stop
         style="stop-color:#f3c895;stop-opacity:1;"
         offset="0"
         id="stop18" /></linearGradient><inkscape:path-effect
       effect="fillet_chamfer"
       id="path-effect1-1"
       is_visible="true"
       lpeversion="1"
       nodesatellites_param="F,0,0,1,0,23.707197,0,1 @ F,0,0,1,0,0,0,1 @ F,0,0,1,0,0.154436,0,1 @ F,0,0,1,0,0,0,1"
       radius="0"
       unit="px"
       method="auto"
       mode="F"
       chamfer_steps="1"
       flexible="false"
       use_knot_distance="true"
       apply_no_radius="true"
       apply_with_radius="true"
       only_selected="false"
       hide_knots="false" /><linearGradient
       inkscape:collect="always"
       xlink:href="#swatch19"
       id="linearGradient10"
       x1="114.01881"
       y1="74.037704"
       x2="159.71411"
       y2="74.037704"
       gradientUnits="userSpaceOnUse" /><linearGradient
       inkscape:collect="always"
       xlink:href="#swatch20"
       id="linearGradient11"
       x1="46.645346"
       y1="255.18888"
       x2="95.275601"
       y2="255.18888"
       gradientUnits="userSpaceOnUse" /><linearGradient
       inkscape:collect="always"
       xlink:href="#swatch19"
       id="linearGradient12"
       x1="45.252123"
       y1="219.8794"
       x2="157.61544"
       y2="219.8794"
       gradientUnits="userSpaceOnUse" /><linearGradient
       inkscape:collect="always"
       xlink:href="#swatch21"
       id="linearGradient13"
       x1="72.342003"
       y1="224.92542"
       x2="133.45852"
       y2="224.92542"
       gradientUnits="userSpaceOnUse" /><linearGradient
       inkscape:collect="always"
       xlink:href="#swatch18"
       id="linearGradient14"
       x1="75.691406"
       y1="193.3333"
       x2="130.52539"
       y2="193.3333"
       gradientUnits="userSpaceOnUse" /><linearGradient
       inkscape:collect="always"
       xlink:href="#swatch18"
       id="linearGradient15"
       x1="130.89948"
       y1="277.33784"
       x2="200.18695"
       y2="277.33784"
       gradientUnits="userSpaceOnUse" /><linearGradient
       inkscape:collect="always"
       xlink:href="#swatch18"
       id="linearGradient16"
       x1="5.6114446"
       y1="168.85381"
       x2="123.45178"
       y2="168.85381"
       gradientUnits="userSpaceOnUse" /><linearGradient
       inkscape:collect="always"
       xlink:href="#swatch18"
       id="linearGradient17"
       x1="126.13231"
       y1="125.70913"
       x2="164.11661"
       y2="125.70913"
       gradientUnits="userSpaceOnUse" /><linearGradient
       inkscape:collect="always"
       xlink:href="#swatch18"
       id="linearGradient18"
       x1="45.514236"
       y1="323.28963"
       x2="85.710651"
       y2="323.28963"
       gradientUnits="userSpaceOnUse" /><linearGradient
       inkscape:collect="always"
       xlink:href="#swatch19"
       id="linearGradient19"
       x1="33.326884"
       y1="397.20005"
       x2="71.043365"
       y2="397.20005"
       gradientUnits="userSpaceOnUse" /><linearGradient
       inkscape:collect="always"
       xlink:href="#swatch20"
       id="linearGradient20"
       x1="115.24517"
       y1="187.95608"
       x2="175.58326"
       y2="187.95608"
       gradientUnits="userSpaceOnUse" /><linearGradient
       inkscape:collect="always"
       xlink:href="#swatch21"
       id="linearGradient21"
       x1="114.01881"
       y1="74.037704"
       x2="159.71411"
       y2="74.037704"
       gradientUnits="userSpaceOnUse" /><linearGradient
       inkscape:collect="always"
       xlink:href="#swatch21"
       id="linearGradient22"
       x1="46.645346"
       y1="255.18888"
       x2="95.275601"
       y2="255.18888"
       gradientUnits="userSpaceOnUse" /><linearGradient
       inkscape:collect="always"
       xlink:href="#swatch21"
       id="linearGradient23"
       x1="45.252123"
       y1="219.8794"
       x2="157.61544"
       y2="219.8794"
       gradientUnits="userSpaceOnUse" /><linearGradient
       inkscape:collect="always"
       xlink:href="#swatch21"
       id="linearGradient25"
       x1="75.691406"
       y1="193.3333"
       x2="130.52539"
       y2="193.3333"
       gradientUnits="userSpaceOnUse" /><linearGradient
       inkscape:collect="always"
       xlink:href="#swatch21"
       id="linearGradient26"
       x1="130.89948"
       y1="277.33784"
       x2="200.18695"
       y2="277.33784"
       gradientUnits="userSpaceOnUse" /><linearGradient
       inkscape:collect="always"
       xlink:href="#swatch21"
       id="linearGradient27"
       x1="5.6114446"
       y1="168.85381"
       x2="123.45178"
       y2="168.85381"
       gradientUnits="userSpaceOnUse" /><linearGradient
       inkscape:collect="always"
       xlink:href="#swatch21"
       id="linearGradient28"
       x1="126.13231"
       y1="125.70913"
       x2="164.11661"
       y2="125.70913"
       gradientUnits="userSpaceOnUse" /><linearGradient
       inkscape:collect="always"
       xlink:href="#swatch21"
       id="linearGradient29"
       x1="45.514236"
       y1="323.28963"
       x2="85.710651"
       y2="323.28963"
       gradientUnits="userSpaceOnUse" /><linearGradient
       inkscape:collect="always"
       xlink:href="#swatch21"
       id="linearGradient30"
       x1="33.326884"
       y1="397.20005"
       x2="71.043365"
       y2="397.20005"
       gradientUnits="userSpaceOnUse" /><linearGradient
       inkscape:collect="always"
       xlink:href="#swatch21"
       id="linearGradient31"
       x1="115.24517"
       y1="187.95608"
       x2="175.58326"
       y2="187.95608"
       gradientUnits="userSpaceOnUse" /><linearGradient
       inkscape:collect="always"
       xlink:href="#swatch21"
       id="linearGradient2"
       gradientUnits="userSpaceOnUse"
       x1="72.342003"
       y1="224.92542"
       x2="133.45852"
       y2="224.92542" /></defs><g
     id="g1"
     style="display:inline"
     transform="translate(-55.527344,-92.778941)"><path
       id="path2"
       style="font-variation-settings:'wght' 700;opacity:0.833333;mix-blend-mode:normal;fill:#3c4535;fill-opacity:1;stroke-width:7.8648;stroke-linecap:square;stroke-linejoin:round;stroke-miterlimit:4.3;paint-order:stroke markers fill"
       d="m 251.61914,92.786754 c -0.48777,-0.02274 -0.99257,0.0018 -1.50976,0.07617 -44.756,6.433532 -78.57623,43.941846 -78.57618,88.734376 2.9e-4,11.30985 2.19743,22.49436 6.44922,32.9707 1.57189,3.8731 6.03505,5.11855 9.60352,2.93946 2.97271,-1.81529 3.86657,-6.33033 2.4375,-10.25782 -2.94951,-8.10605 -4.46476,-16.65328 -4.46485,-25.28125 5e-5,-22.7441 10.50376,-44.19687 28.45704,-58.62109 2.46028,-1.97667 5.61934,-1.07535 6.89843,1.81055 0.75856,1.71147 -0.71937,4.58224 -3.09765,6.65625 -13.88096,12.10512 -22.21695,30.04394 -22.2168,50.1914 8e-5,5.09019 0.58685,10.04638 1.69922,14.8086 0.79121,3.3873 4.33643,4.97576 7.55078,3.64258 2.63215,-1.09171 3.91046,-4.67693 3.29297,-8.09961 -0.53634,-2.97287 2.11609,-5.3909 5.5957,-5.34961 l 3.85938,0.0469 c 3.47961,0.0413 6.60326,2.90344 7.61523,6.22852 2.57956,8.47579 8.10775,15.76089 15.45897,20.78452 2.91178,1.98983 6.72267,0.58041 8.18753,-2.63156 0.95357,-2.09087 -0.92967,-4.93488 -3.7928,-6.99114 -6.06486,-4.35571 -10.71109,-10.9803 -10.71112,-20.0837 1e-5,-3.36855 0.47505,-6.54183 1.34961,-9.48047 0.67743,-2.27625 -0.0183,-5.20008 -1.84766,-6.71679 -0.63751,-0.52856 -1.30283,-1.0828 -1.94336,-1.61328 -1.82769,-1.51367 -4.1418,-0.92122 -5.28906,1.16015 -1.68973,3.06551 -3.69657,5.28452 -8.13672,5.32422 l -4.17383,-0.0508 c -3.47961,-0.0413 -5.87512,-2.87362 -4.92968,-6.2207 4.92646,-17.44088 18.00323,-31.44055 35.24609,-37.60157 3.27532,-1.1703 5.43951,-4.54817 4.70312,-7.94922 -0.49655,-2.29335 -3.68346,-3.65303 -7.02539,-2.6875 -0.2886,0.0834 -0.57471,0.16886 -0.86132,0.25586 -3.32856,1.01041 -7.09456,-0.4577 -8.52735,-3.6289 -1.0149,-2.24629 0.74909,-5.22754 4.09961,-6.15625 4.17581,-1.15746 8.55565,-1.81077 12.92969,-2.28321 4.15635,-0.44893 7.57341,-4.09053 7.61914,-8.271481 0.0336,-3.072296 -2.53479,-5.495141 -5.94922,-5.654296 z m 26.60742,0.273437 c -3.77533,-0.19626 -6.78783,2.806922 -6.83008,6.726563 -0.0369,3.425976 3.32384,6.448566 7.43946,7.177736 32.4087,5.74189 57.8254,30.45701 63.49023,61.87304 0.61733,3.4236 -1.96762,6.27033 -5.44726,6.3086 -2.79618,0.0308 -5.29042,-2.7621 -5.90821,-6.18555 -4.35953,-24.15816 -20.79616,-43.43966 -44.47851,-50.38086 -3.33815,-0.9784 -6.96072,1.20899 -7.9961,4.53125 -0.69053,2.21574 1.5229,4.58132 4.81641,5.69922 0.18166,0.0617 0.36421,0.12408 0.54492,0.1875 3.28182,1.15159 4.20239,4.73285 2.21289,7.58789 l -3.08203,4.41992 c -1.9895,2.85504 -6.24722,4.13859 -9.65039,3.42774 -2.84009,-0.59323 -5.79088,-0.90619 -8.81836,-0.90625 -10.18227,-1e-5 -19.49575,3.53877 -26.65625,9.39258 -1.8393,1.50366 -1.68331,4.10453 0.16602,5.59765 l 1.55859,1.25781 c 1.84933,1.49312 4.67561,1.29142 6.55664,-0.1582 5.12743,-3.95146 11.50604,-6.22477 18.26563,-6.33008 14.60099,2.8e-4 29.80468,13.99796 29.80468,30.07032 -0.14866,9.36557 -6.15285,17.29968 -13.64004,22.21537 -2.94706,1.93489 -4.68921,5.71677 -3.53174,9.05186 l 8.40217,24.20967 c 1.15747,3.33509 4.83464,5.18132 8.06938,3.77084 6.20457,-2.70545 11.87353,-6.3286 16.86234,-10.83563 2.58101,-2.33176 2.65573,-6.63428 0.44336,-9.32032 -1.54555,-1.87646 -4.7946,-1.39479 -7.48437,0.81055 -1.1317,0.92787 -2.32057,1.8554 -3.49805,2.73047 -2.79183,2.07482 -6.17859,0.88509 -7.36914,-2.38477 l -1.44336,-3.96875 c -1.19055,-3.26986 0.1947,-7.51654 2.69141,-9.93554 7.24608,-7.02056 11.71467,-16.64215 11.71484,-27.25782 7e-5,-9.42112 -3.51992,-18.06199 -9.37695,-24.79492 -2.28158,-2.62278 -2.88013,-6.72308 -0.89063,-9.57812 l 2.66016,-3.81446 c 1.98951,-2.85504 5.78085,-3.36045 8.15234,-0.8164 9.4398,10.12669 15.05853,23.79663 15.0586,38.83984 -2e-5,3.651 -0.63355,8.00936 -1.48438,12.00977 -0.72373,3.40284 1.17343,6.90115 4.51367,7.87695 2.44585,0.71451 5.3179,-1.39296 6.00977,-4.80078 0.22045,-1.08583 0.4233,-2.19743 0.60937,-3.29492 0.58165,-3.43057 3.68318,-5.67139 7.09375,-4.98047 2.90947,0.58941 4.96683,3.87933 4.23243,7.27929 -0.94591,4.37907 -2.34121,8.89663 -3.98243,13.12891 -1.51123,3.89708 0.10181,8.22218 3.96875,9.8125 2.40051,0.98723 5.90456,-1.23119 7.45899,-5.11133 4.15461,-10.37068 6.29846,-21.42571 6.29883,-32.60156 8e-4,-44.10566 -32.82066,-81.2617 -76.76368,-88.455078 -0.25782,-0.04221 -0.51198,-0.06895 -0.76367,-0.08203 z m -56.8457,128.074219 c -1.35992,-0.0266 -2.71565,0.39905 -3.77148,1.31445 l -0.78516,0.67969 c -2.11167,1.83076 -2.33291,5.03137 -0.2832,6.92969 0.75543,0.69964 1.52057,1.36565 2.31445,2.02148 2.30644,1.90536 3.00013,5.34568 1.39844,7.87305 -1.26331,1.99342 -4.28289,2.2258 -6.60352,0.33789 -3.1429,-2.55687 -6.07372,-5.34611 -8.76562,-8.3418 -2.79352,-3.10877 -7.66788,-4.10489 -11.23633,-1.92578 -2.9285,1.78831 -3.33881,6.00857 -0.61328,9.17774 7.46678,8.68219 16.4789,15.82162 26.49694,21.14422 3.11693,1.65603 6.93082,0.19923 8.39571,-3.01272 l 9.04282,-19.82746 c 1.46489,-3.21195 0.0413,-7.00547 -3.00005,-8.79538 -3.16632,-1.86348 -6.12141,-3.94685 -8.79285,-6.17468 -1.07285,-0.8947 -2.43696,-1.37374 -3.79687,-1.40039 z m 109.35937,7.41211 c -2.16618,0.0305 -4.85385,1.5322 -6.96679,3.84766 -7.56612,8.29127 -16.84232,14.8222 -27.12378,19.24343 -3.24225,1.39423 -5.02753,4.99332 -3.86979,8.32832 1.15497,3.32699 4.8028,5.0963 8.04559,3.70274 12.92453,-5.55418 24.49322,-13.98356 33.68626,-24.76864 2.71155,-3.18113 1.76059,-7.71055 -1.82031,-9.86914 -0.56586,-0.3411 -1.22912,-0.49453 -1.95118,-0.48437 z"
       inkscape:path-effect="#path-effect1"
       inkscape:original-d="m 251.61914,92.786754 c -0.48777,-0.02274 -0.99257,0.0018 -1.50976,0.07617 -44.756,6.433532 -78.57623,43.941845 -78.57618,88.734375 2.9e-4,11.30985 2.19743,22.49436 6.44922,32.9707 1.57189,3.8731 6.03505,5.11855 9.60352,2.93946 2.97271,-1.81529 3.86657,-6.33033 2.4375,-10.25782 -2.94951,-8.10605 -4.46476,-16.65328 -4.46485,-25.28125 5e-5,-22.7441 10.50376,-44.19687 28.45704,-58.62109 2.46028,-1.97667 5.61934,-1.07535 6.89843,1.81055 0.75856,1.71147 -0.71937,4.58224 -3.09765,6.65625 -13.88096,12.10512 -22.21695,30.04394 -22.2168,50.1914 8e-5,5.09019 0.58685,10.04638 1.69922,14.8086 0.79121,3.3873 4.33643,4.97576 7.55078,3.64258 2.63215,-1.09171 3.91046,-4.67693 3.29297,-8.09961 -0.53634,-2.97287 2.11609,-5.3909 5.5957,-5.34961 l 3.85938,0.0469 c 3.47961,0.0413 6.60326,2.90344 7.61523,6.22852 3.19263,10.49018 10.902,19.15644 20.99414,23.96875 l 4.37891,-9.60157 c -8.52055,-3.94888 -16.23043,-11.56232 -16.23047,-23.28906 1e-5,-3.36855 0.47505,-6.54183 1.34961,-9.48047 0.67743,-2.27625 -0.0183,-5.20008 -1.84766,-6.71679 -0.63751,-0.52856 -1.30283,-1.0828 -1.94336,-1.61328 -1.82769,-1.51367 -4.1418,-0.92122 -5.28906,1.16015 -1.68973,3.06551 -3.69657,5.28452 -8.13672,5.32422 l -4.17383,-0.0508 c -3.47961,-0.0413 -5.87512,-2.87362 -4.92968,-6.2207 4.92646,-17.44088 18.00323,-31.44055 35.24609,-37.60157 3.27532,-1.1703 5.43951,-4.54817 4.70312,-7.94922 -0.49655,-2.29335 -3.68346,-3.65303 -7.02539,-2.6875 -0.2886,0.0834 -0.57471,0.16886 -0.86132,0.25586 -3.32856,1.01041 -7.09456,-0.4577 -8.52735,-3.6289 -1.0149,-2.24629 0.74909,-5.22754 4.09961,-6.15625 4.17581,-1.15746 8.55565,-1.81077 12.92969,-2.28321 4.15635,-0.44893 7.57341,-4.09053 7.61914,-8.27148 0.0336,-3.072296 -2.53479,-5.495141 -5.94922,-5.654296 z m 26.60742,0.273437 c -3.77533,-0.19626 -6.78783,2.806922 -6.83008,6.726563 -0.0369,3.425976 3.32384,6.448566 7.43946,7.177736 32.4087,5.74189 57.8254,30.45701 63.49023,61.87304 0.61733,3.4236 -1.96762,6.27033 -5.44726,6.3086 -2.79618,0.0308 -5.29042,-2.7621 -5.90821,-6.18555 -4.35953,-24.15816 -20.79616,-43.43966 -44.47851,-50.38086 -3.33815,-0.9784 -6.96072,1.20899 -7.9961,4.53125 -0.69053,2.21574 1.5229,4.58132 4.81641,5.69922 0.18166,0.0617 0.36421,0.12408 0.54492,0.1875 3.28182,1.15159 4.20239,4.73285 2.21289,7.58789 l -3.08203,4.41992 c -1.9895,2.85504 -6.24722,4.13859 -9.65039,3.42774 -2.84009,-0.59323 -5.79088,-0.90619 -8.81836,-0.90625 -10.18227,-1e-5 -19.49575,3.53877 -26.65625,9.39258 -1.8393,1.50366 -1.68331,4.10453 0.16602,5.59765 l 1.55859,1.25781 c 1.84933,1.49312 4.67561,1.29142 6.55664,-0.1582 5.12743,-3.95146 11.50604,-6.22477 18.26563,-6.33008 14.60099,2.8e-4 29.80468,13.99796 29.80468,30.07032 -0.18459,11.62939 -9.3976,21.05165 -19.26757,25.22851 l 12.59375,36.28711 c 8.56604,-2.79371 16.28702,-7.18704 22.83593,-13.10351 2.58101,-2.33176 2.65573,-6.63428 0.44336,-9.32032 -1.54555,-1.87646 -4.7946,-1.39479 -7.48437,0.81055 -1.1317,0.92787 -2.32057,1.8554 -3.49805,2.73047 -2.79183,2.07482 -6.17859,0.88509 -7.36914,-2.38477 l -1.44336,-3.96875 c -1.19055,-3.26986 0.1947,-7.51654 2.69141,-9.93554 7.24608,-7.02056 11.71467,-16.64215 11.71484,-27.25782 7e-5,-9.42112 -3.51992,-18.06199 -9.37695,-24.79492 -2.28158,-2.62278 -2.88013,-6.72308 -0.89063,-9.57812 l 2.66016,-3.81446 c 1.98951,-2.85504 5.78085,-3.36045 8.15234,-0.8164 9.4398,10.12669 15.05853,23.79663 15.0586,38.83984 -2e-5,3.651 -0.63355,8.00936 -1.48438,12.00977 -0.72373,3.40284 1.17343,6.90115 4.51367,7.87695 2.44585,0.71451 5.3179,-1.39296 6.00977,-4.80078 0.22045,-1.08583 0.4233,-2.19743 0.60937,-3.29492 0.58165,-3.43057 3.68318,-5.67139 7.09375,-4.98047 2.90947,0.58941 4.96683,3.87933 4.23243,7.27929 -0.94591,4.37907 -2.34121,8.89663 -3.98243,13.12891 -1.51123,3.89708 0.10181,8.22218 3.96875,9.8125 2.40051,0.98723 5.90456,-1.23119 7.45899,-5.11133 4.15461,-10.37068 6.29846,-21.42571 6.29883,-32.60156 8e-4,-44.10566 -32.82066,-81.2617 -76.76368,-88.455078 -0.25782,-0.04221 -0.51198,-0.06895 -0.76367,-0.08203 z m -56.8457,128.074219 c -1.35992,-0.0266 -2.71565,0.39905 -3.77148,1.31445 l -0.78516,0.67969 c -2.11167,1.83076 -2.33291,5.03137 -0.2832,6.92969 0.75543,0.69964 1.52057,1.36565 2.31445,2.02148 2.30644,1.90536 3.00013,5.34568 1.39844,7.87305 -1.26331,1.99342 -4.28289,2.2258 -6.60352,0.33789 -3.1429,-2.55687 -6.07372,-5.34611 -8.76562,-8.3418 -2.79352,-3.10877 -7.66788,-4.10489 -11.23633,-1.92578 -2.9285,1.78831 -3.33881,6.00857 -0.61328,9.17774 8.86815,10.31167 19.91612,18.44714 32.24023,23.94726 l 14.34766,-31.45898 c -5.32983,-2.49702 -10.23916,-5.6466 -14.44532,-9.1543 -1.07285,-0.8947 -2.43696,-1.37374 -3.79687,-1.40039 z m 109.35937,7.41211 c -2.16618,0.0305 -4.85385,1.5322 -6.96679,3.84766 -9.00406,9.86703 -20.42998,17.24103 -33.08985,21.5332 l 4.1875,12.0625 c 15.32481,-5.37925 29.05706,-14.67343 39.64063,-27.08985 2.71155,-3.18113 1.76059,-7.71055 -1.82031,-9.86914 -0.56586,-0.3411 -1.22912,-0.49453 -1.95118,-0.48437 z" /><path
       id="path5"
       style="font-variation-settings:'wght' 700;opacity:0.833333;mix-blend-mode:normal;fill:#4d5647;fill-opacity:1;stroke-width:1.78655;stroke-linecap:square;stroke-linejoin:round;stroke-miterlimit:4.3;paint-order:stroke markers fill"
       d="m 263.46484,162.25977 c -11.66787,-2e-5 -21.12703,9.0356 -21.12695,20.18164 1.3e-4,8.57277 5.59704,15.8982 13.4898,18.82327 1.61909,0.60004 3.184,-0.51712 3.40802,-2.23074 l 0.756,-5.78277 c 0.22402,-1.71362 0.90246,-3.20077 -2.20685,-4.82161 -2.20135,-1.14753 -3.8412,-3.4925 -3.80284,-5.70091 0.12218,-7.03279 5.87438,-9.89536 10.5004,-9.79896 4.97422,0.10365 8.66198,4.8956 8.48633,9.03906 -0.14965,3.53009 -1.68877,5.54038 -2.58407,6.58655 l -2.49635,1.39337 c -1.18824,0.66324 -0.71961,1.57806 -0.51727,3.44994 l 0.60317,5.58018 c 0.18572,1.71819 1.71686,2.82548 3.3299,2.20939 7.78644,-2.97401 13.2875,-10.24692 13.28763,-18.74676 8e-5,-11.14588 -9.45926,-20.18143 -21.12696,-20.18164 z"
       sodipodi:nodetypes="ccssssssscssssccc" /><text
       xml:space="preserve"
       style="font-style:normal;font-variant:normal;font-weight:normal;font-stretch:normal;font-size:53.3333px;line-height:0;font-family:Orbitron;-inkscape-font-specification:'Orbitron, @wght=700';font-variant-ligatures:normal;font-variant-caps:small-caps;font-variant-numeric:normal;font-variant-east-asian:normal;font-variation-settings:'wght' 700;text-align:center;letter-spacing:5px;word-spacing:0px;writing-mode:lr-tb;direction:ltr;text-anchor:middle;opacity:0.833333;fill:#636f5b;fill-opacity:1;stroke-width:7.534;stroke-linecap:square;stroke-linejoin:round;stroke-miterlimit:4.3;paint-order:stroke markers fill"
       x="266.43423"
       y="352.57364"
       id="text1"><tspan
         id="tspan1"
         x="268.93423"
         y="352.57364"
         style="font-style:normal;font-variant:normal;font-weight:normal;font-stretch:normal;font-size:26.6667px;font-family:'Andale Mono';-inkscape-font-specification:'Andale Mono, Normal';font-variant-ligatures:normal;font-variant-caps:normal;font-variant-numeric:normal;font-variant-east-asian:normal;fill:#636f5b;fill-opacity:1">run without stop</tspan></text><path
       id="text2"
       style="font-style:normal;font-variant:normal;font-weight:normal;font-stretch:normal;font-size:53.3333px;line-height:0;font-family:Orbitron;-inkscape-font-specification:'Orbitron, @wght=900';font-variant-ligatures:normal;font-variant-caps:normal;font-variant-numeric:normal;font-variant-east-asian:normal;font-variation-settings:'wght' 900;text-align:center;letter-spacing:5px;word-spacing:0px;writing-mode:lr-tb;direction:ltr;text-anchor:middle;opacity:0.821429;fill:#3f4539;fill-opacity:1;stroke-width:7.534;stroke-linecap:square;stroke-linejoin:round;stroke-miterlimit:4.3;paint-order:stroke markers fill"
       d="m 132.39063,292.96058 v 27.88867 h 25.68164 v -7.34375 h -18.33594 v -1.5664 c -0.0165,-0.0763 -0.0254,-0.15497 -0.0254,-0.23633 v -8.90039 c 0,-0.0814 0.009,-0.16006 0.0254,-0.23633 v -2.26172 h 18.33594 v -7.34375 z m 226.85742,0 v 27.88867 h 25.67969 V 313.5055 H 366.5918 v -2.88086 h 0.004 v -7.39062 h -0.004 v -2.92969 h 18.33594 v -7.34375 z m -303.720706,0.0488 v 7.34375 h 9.576172 c 0.06617,-0.0118 0.133383,-0.018 0.203125,-0.0176 l 8.220703,0.0508 v -0.0332 h 10.703125 v -7.34375 z m 37.544922,0 v 27.83984 h 7.343754 v -10.22461 h 14.30273 v 10.22461 h 7.39258 v -27.83984 h -7.39258 v 10.22461 h -14.30273 v -10.22461 z m 95.398434,0 v 27.83984 h 7.34571 v -7.34375 -1.21094 -19.28515 z m 43.5918,0 c -1.28,0 -2.44791,0.31898 -3.50391,0.95898 -1.056,0.64 -1.90296,1.48892 -2.54296,2.54492 -0.64,1.056 -0.96094,2.20708 -0.96094,3.45508 v 20.88086 h 7.3457 v -5.47265 c -0.0278,-0.0972 -0.043,-0.19833 -0.043,-0.30469 v -8.90039 c 0,-0.10637 0.0152,-0.20944 0.043,-0.30664 v -5.51172 h 14.87891 v 6.52734 h -11.45703 v 7.34375 h 11.45703 v 6.625 h 7.34375 v -20.88086 c 0,-1.248 -0.31899,-2.39908 -0.95899,-3.45508 -0.608,-1.056 -1.44009,-1.90492 -2.49609,-2.54492 -1.056,-0.64 -2.22391,-0.95898 -3.50391,-0.95898 z m 39.56055,0 c -1.248,0 -2.39908,0.31898 -3.45508,0.95898 -1.056,0.64 -1.90492,1.48892 -2.54492,2.54492 -0.64,1.056 -0.95899,2.20708 -0.95899,3.45508 v 3.69727 c 0,1.248 0.31899,2.39908 0.95899,3.45508 0.64,1.056 1.48892,1.90492 2.54492,2.54492 1.056,0.64 2.20708,0.95898 3.45508,0.95898 h 13.91992 v 2.88086 h -13.53516 v -0.96094 h -7.34375 v 1.34375 c 0,1.248 0.31899,2.40104 0.95899,3.45704 0.64,1.056 1.48892,1.90296 2.54492,2.54296 1.056,0.64 2.20708,0.96094 3.45508,0.96094 h 14.30469 c 1.28,0 2.4479,-0.32094 3.5039,-0.96094 1.056,-0.64 1.90297,-1.48696 2.54297,-2.54296 0.64,-1.056 0.96094,-2.20904 0.96094,-3.45704 V 310.193 c 0,-1.248 -0.32094,-2.39908 -0.96094,-3.45508 -0.64,-1.056 -1.48697,-1.90492 -2.54297,-2.54492 -1.056,-0.64 -2.2239,-0.95898 -3.5039,-0.95898 h -13.91993 v -2.88086 h 13.53516 v 0.96094 h 7.39258 v -1.34571 c 0,-1.248 -0.32094,-2.39908 -0.96094,-3.45508 -0.64,-1.056 -1.48697,-1.90492 -2.54297,-2.54492 -1.056,-0.64 -2.2239,-0.95898 -3.5039,-0.95898 z m 29.7207,0 v 7.34375 h 10.60742 v 0.0351 l 7.39258,0.0469 v -0.082 h 10.70313 v -7.34375 z m 93.14453,0 v 2.40039 l 9.50391,11.23047 -9.50391,11.80859 v 2.40039 h 7.53516 l 6.8164,-8.40039 6.81641,8.40039 h 7.53516 v -2.40039 l -9.59961,-11.80859 9.59961,-11.23047 v -2.40039 h -7.53516 l -6.81641,8.06445 -6.8164,-8.06445 z m 38.59961,0 v 27.83984 h 7.34375 v -27.83984 z m 13.73633,0 v 7.34375 h 9.04297 c 0.13131,-0.0536 0.27465,-0.083 0.42578,-0.082 l 8.90039,0.0547 c 0.0808,5.1e-4 0.1606,0.0106 0.23633,0.0274 h 10.09765 v -7.34375 z m -303.64844,10.22461 v 7.39062 h 10.24024 v -7.39062 z m 226.88672,0 v 7.39062 h 10.20899 v -7.39062 z m 87.36914,0.50976 v 17.10547 h 7.39258 v -17.05859 z m -391.296874,0.0625 v 17.04297 h 7.392578 v -16.99609 z m 245.816404,0.0469 v 16.99609 h 7.39258 v -16.94922 z m -112.66992,9.65234 v 7.34375 h 17.89453 v -7.34375 z" /></g><g
     id="g2"
     transform="matrix(0.17872556,0.04190878,0.04014954,-0.18655678,177.55087,186.96857)"><path
       style="font-variation-settings:'wght' 900;opacity:1;fill:url(#linearGradient10);fill-opacity:1;stroke:url(#linearGradient21);stroke-width:7.534;stroke-linecap:square;stroke-linejoin:round;stroke-miterlimit:4.3;paint-order:stroke markers fill"
       d="m 150.91157,96.065994 c 0,0 2.24212,-18.79927 3.96682,-24.318321 1.7247,-5.519052 5.00164,-18.45433 4.82917,-23.628441 -0.17247,-5.174111 -0.86235,-11.727985 -5.69152,-13.107748 -4.82917,-1.379762 -15.00492,3.104467 -21.38633,10.175752 -6.3814,7.071285 -9.48587,10.865633 -9.48587,18.281859 0,7.416226 2.24212,11.555515 -0.34494,15.694803 -2.58705,4.139289 -8.27858,10.865634 -8.62352,15.522333 -0.34494,4.6567 -0.51741,12.935279 3.96682,15.177389 4.48423,2.24212 10.34822,3.44941 10.34822,3.44941 z"
       id="path10" /><path
       style="font-variation-settings:'wght' 900;opacity:1;fill:url(#linearGradient11);fill-opacity:1;stroke:url(#linearGradient22);stroke-width:7.534;stroke-linecap:square;stroke-linejoin:round;stroke-miterlimit:4.3;paint-order:stroke markers fill"
       d="m 55.825548,238.189 c 0,0 -2.729249,10.917 -3.969817,12.65379 -1.240568,1.7368 -5.210385,5.95473 -5.210385,5.95473 0,0 5.210385,7.69152 7.69152,8.93209 2.481136,1.24056 21.833992,6.69906 31.51042,6.45095 9.676429,-0.24811 7.69152,-2.97736 7.69152,-2.97736 l 1.736795,-19.35286 z"
       id="path7" /><path
       style="font-variation-settings:'wght' 900;opacity:1;fill:url(#linearGradient12);fill-opacity:1;stroke:url(#linearGradient23);stroke-width:7.534;stroke-linecap:square;stroke-linejoin:round;stroke-miterlimit:4.3;paint-order:stroke markers fill"
       d="m 59.057855,175.63959 -13.805732,57.90738 c 0,0 6.135881,7.28636 10.737791,9.20382 4.601911,1.91747 25.694002,5.3689 25.694002,5.3689 l 27.994954,16.49018 22.62606,3.83492 25.31051,-45.25212 c 0,0 -4.9854,-31.82988 -38.73275,-45.25212 -33.747341,-13.42224 -59.824835,-2.30096 -59.824835,-2.30096 z"
       id="path6" /><path
       style="font-variation-settings:'wght' 900;display:inline;opacity:1;fill:url(#linearGradient2);stroke:url(#linearGradient13);stroke-width:7.534;stroke-linecap:square;stroke-linejoin:round;stroke-miterlimit:4.3;paint-order:stroke markers fill"
       id="ellipse1"
       sodipodi:type="arc"
       sodipodi:cx="102.90026"
       sodipodi:cy="224.92542"
       sodipodi:rx="30.558258"
       sodipodi:ry="45.776665"
       sodipodi:start="0"
       sodipodi:end="6.230779"
       sodipodi:open="true"
       sodipodi:arc-type="arc"
       d="m 133.45852,224.92542 a 30.558258,45.776665 0 0 1 -30.15791,45.77273 30.558258,45.776665 0 0 1 -30.948117,-44.57338 30.558258,45.776665 0 0 1 29.346997,-46.94066 30.558258,45.776665 0 0 1 31.71708,43.34342" /><path
       id="path1"
       style="font-variation-settings:'wght' 900;display:inline;opacity:1;fill:url(#linearGradient14);fill-opacity:1;stroke:url(#linearGradient25);stroke-width:7.534;stroke-linecap:square;stroke-linejoin:round;stroke-miterlimit:4.3;paint-order:stroke markers fill"
       d="m 103.36328,179.1543 c -11.641882,-0.26402 -22.372304,9.40533 -27.671874,24.93554 1.833734,-1.91857 5.307067,-5.32812 6.832032,-5.32812 2.122012,0 0.470703,5.1875 0.470703,5.1875 0,0 5.65893,-5.1875 8.488281,-5.1875 2.829351,0 0.943359,4.71484 0.943359,4.71484 0,0 3.301202,0.001 6.837891,0.47266 3.536688,0.47156 5.422058,-2.35718 8.015628,-1.41406 1.86337,0.67759 3.48357,3.42317 4.24804,4.91601 l 1.17578,0.0664 c 1.24685,-1.55537 3.85088,-4.57349 5.42188,-4.74805 2.12201,-0.23578 1.65039,4.24414 1.65039,4.24414 0,0 3.77197,-4.71539 5.6582,-4.95117 1.88624,-0.23578 3.77344,2.59375 3.77344,2.59375 l 1.31836,0.69727 c -4.98053,-15.77458 -15.51468,-25.9353 -27.16211,-26.19922 z"
       sodipodi:nodetypes="ccscscssccscscccc" /><path
       style="font-variation-settings:'wght' 900;opacity:1;fill:url(#linearGradient15);fill-opacity:1;stroke:url(#linearGradient26);stroke-width:7.534;stroke-linecap:square;stroke-linejoin:round;stroke-miterlimit:4.3;paint-order:stroke markers fill"
       d="m 157.28914,224.61134 c 0,0 -10.40434,0.81602 -16.72855,12.03639 -6.3242,11.22037 -3.80323,19.87613 -6.0473,25.79232 -2.24408,5.91619 -3.61381,6.48457 -3.61381,6.48457 0,0 5.17297,3.22027 5.98899,5.05633 0.81603,1.83606 2.44808,32.43706 7.14024,41.20935 4.69215,8.77228 7.14023,16.11652 15.3005,15.5045 8.16026,-0.61202 11.83238,-11.62838 13.26043,-14.68848 1.42804,-3.0601 3.46811,-9.1803 6.1202,-11.83238 2.65208,-2.65209 5.30417,-10.81236 6.52821,-17.34057 1.22404,-6.52821 2.24407,-17.54457 4.28414,-20.19666 2.04007,-2.65209 7.95626,-11.83239 9.58831,-15.50451 1.63206,-3.67212 1.22404,-5.91619 0,-7.54824 -1.22404,-1.63206 -7.75225,-12.85242 -15.09649,-14.07646 -7.34424,-1.22404 -7.75225,7.95626 -7.75225,7.95626 0,0 -4.69215,1.83606 -4.48815,4.48814 0.20401,2.65209 1.42805,6.32421 1.42805,9.1803 0,2.8561 2.04006,9.79232 -4.08013,17.34057 -6.1202,7.54825 -2.65209,22.64474 -2.65209,22.64474 0,0 -4.28414,-11.62838 -3.87613,-20.19666 0.40802,-8.56828 5.9162,-15.70851 6.73222,-20.80868 0.81603,-5.10017 -6.3242,-21.4207 -9.1803,-24.4808 -2.85609,-3.0601 -2.85609,-1.02003 -2.85609,-1.02003 z"
       id="path2-5"
       sodipodi:nodetypes="csscsssssssssscssscsssc" /><path
       style="font-variation-settings:'wght' 900;opacity:1;fill:url(#linearGradient16);fill-opacity:1;stroke:url(#linearGradient27);stroke-width:7.534;stroke-linecap:square;stroke-linejoin:round;stroke-miterlimit:4.3;paint-order:stroke markers fill"
       d="m 59.543663,178.00749 c 0,0 4.676203,14.96386 3.429216,24.00452 -1.246988,9.04066 -13.716865,32.42168 -13.716865,32.42168 0,0 -16.21084,-29.30421 -20.26355,-33.04518 -4.05271,-3.74096 -12.781624,-9.9759 -16.21084,-17.45782 -3.4292163,-7.48193 -7.1701794,-15.8991 -7.1701794,-18.08133 0,-2.18222 10.9111424,-19.32831 10.9111424,-19.32831 0,0 50.814749,-28.99246 68.584323,-33.35692 17.76957,-4.36445 9.352408,-11.22289 17.14608,-9.66415 7.79367,1.55873 9.35241,7.48192 12.15813,8.72891 2.80572,1.24699 9.04066,3.11747 9.04066,6.54669 0,3.42921 -8.10542,4.05271 -11.22289,4.36446 -3.11747,0.31174 -2.80572,3.74096 -0.31174,3.74096 2.49397,0 5.92319,-2.18223 8.10542,-2.18223 2.18222,0 -3.11747,14.02861 -18.70482,14.02861 -15.587346,0 -8.417167,-7.17018 -22.445778,-2.49397 -14.028612,4.6762 -32.109933,24.00451 -32.109933,24.00451 z"
       id="path3" /><path
       style="font-variation-settings:'wght' 900;opacity:1;fill:url(#linearGradient17);fill-opacity:1;stroke:url(#linearGradient28);stroke-width:7.534;stroke-linecap:square;stroke-linejoin:round;stroke-miterlimit:4.3;paint-order:stroke markers fill"
       d="m 126.36454,150.48392 c 0,0 -1.04866,-17.82737 1.31084,-26.47888 2.3595,-8.65151 1.573,-17.30303 -0.7865,-20.44903 -2.35951,-3.14601 7.60284,-11.535357 12.32185,-11.535357 4.71901,0 10.48669,4.194674 11.79752,7.340679 1.31084,3.146008 2.35951,18.089528 4.71901,22.022038 2.3595,3.93251 8.12718,15.20569 8.12718,16.77869 0,1.57301 0.26217,21.23554 0.26217,21.23554 0,0 -13.89486,-4.98118 -19.40037,-6.29201 -5.50551,-1.31084 -18.3517,-2.62167 -18.3517,-2.62167 z"
       id="path4" /><path
       style="font-variation-settings:'wght' 900;opacity:1;fill:url(#linearGradient18);fill-opacity:1;stroke:url(#linearGradient29);stroke-width:7.534;stroke-linecap:square;stroke-linejoin:round;stroke-miterlimit:4.3;paint-order:stroke markers fill"
       d="m 51.568649,264.24487 c 0,0 -5.690334,21.33875 -6.045979,31.65248 -0.355646,10.31373 10.669375,36.98717 7.824208,51.9243 -2.845166,14.93712 -7.112917,28.45167 -7.112917,28.45167 0,0 2.133875,5.69033 8.891147,6.04597 6.757271,0.35565 12.447605,-5.69033 12.447605,-5.69033 0,0 12.447605,-56.54769 12.447605,-60.45979 0,-3.91211 5.690333,-9.95809 5.690333,-15.64842 0,-5.69034 -0.355646,-28.80732 -0.355646,-28.80732 0,0 -21.694397,-2.13387 -26.673439,-3.20081 -4.979042,-1.06694 -7.112917,-4.26775 -7.112917,-4.26775 z"
       id="path5-8" /><path
       style="font-variation-settings:'wght' 900;opacity:1;fill:url(#linearGradient19);fill-opacity:1;stroke:url(#linearGradient30);stroke-width:7.534;stroke-linecap:square;stroke-linejoin:round;stroke-miterlimit:4.3;paint-order:stroke markers fill"
       d="m 45.482299,374.86685 c 0,0 2.027873,7.2424 11.298151,6.9527 9.270277,-0.28969 9.849669,-5.50422 11.877543,-4.92483 2.027873,0.57939 3.186657,7.5321 1.738177,15.64359 -1.448481,8.11149 -0.579393,23.1757 -0.579393,23.1757 0,0 -8.401189,4.34544 -18.540555,3.76605 -10.139366,-0.5794 -17.38177,-7.5321 -17.38177,-9.84967 0,-2.31757 -1.738177,-2.31757 0.869089,-8.1115 2.607265,-5.79392 10.718758,-26.65204 10.718758,-26.65204 z"
       id="path8" /><path
       style="font-variation-settings:'wght' 900;opacity:1;fill:url(#linearGradient20);fill-opacity:1;stroke:url(#linearGradient31);stroke-width:7.534;stroke-linecap:square;stroke-linejoin:round;stroke-miterlimit:4.3;paint-order:stroke markers fill"
       d="m 115.24517,174.6728 44.70957,49.98586 c 0,0 6.38708,-4.44319 6.94248,-10.55257 0.5554,-6.10938 -2.22159,-9.99717 0.5554,-15.27346 2.77699,-5.27628 8.88638,-20.27204 8.05328,-26.10372 -0.8331,-5.83169 -2.2216,-9.44178 -5.27629,-10.83027 -3.05469,-1.3885 -23.32673,-8.05328 -28.04762,-9.16408 -4.72088,-1.11079 -14.44035,-2.22159 -16.66195,-0.83309 -2.22159,1.38849 -10.27487,22.77133 -10.27487,22.77133 z"
       id="path9" /></g></svg>
